# AST/ASF file generated using VICON BodyLanguage
# -----------------------------------------------
:version 1.10
:name VICON
:units
  mass 1.0
  length 0.45
  angle deg
:documentation
   .ast/.asf automatically generated from VICON data using
   VICON BodyBuilder and BodyLanguage model FoxedUp or BRILLIANT.MOD
:root
   order TX TY TZ RX RY RZ
   axis XYZ
   position 0 0 0  
   orientation 0 0 0 
:bonedata
  begin
     id 1 
     name lhipjoint
     direction 0.756833 -0.6125 0.228138 
     length 2.53827 
     axis 0 0 0  XYZ
  end
  begin
     id 2 
     name lfemur
     direction 0.34202 -0.939693 0  
     length 6.51821  
     axis 0 0 20  XYZ
    dof rx ry rz
    limits (-160.0 20.0)
           (-70.0 70.0)
           (-60.0 70.0)
  end
  begin
     id 3 
     name ltibia
     direction 0.34202 -0.939693 0   
     length 6.99902   
     axis 0 0 20   XYZ
    dof rx
    limits (-10.0 170.0)
  end
  begin
     id 4 
     name lfoot
     direction 0.0951515 -0.261427 0.960522   
     length 1.92102   
     axis -90 7.62852e-016 20   XYZ
    dof rx rz
    limits (-45.0 90.0)
           (-70.0 20.0)
  end
  begin
     id 5 
     name ltoes
     direction 1.53539e-011 -4.21781e-011 1   
     length 0.964376   
     axis -90 7.62852e-016 20   XYZ
    dof rx
    limits (-90.0 20.0)
  end
  begin
     id 6 
     name rhipjoint
     direction -0.752153 -0.617542 0.230017   
     length 2.51754  
     axis 0 0 0  XYZ 
  end
  begin
     id 7 
     name rfemur
     direction -0.34202 -0.939693 0   
     length 6.82377   
     axis 0 0 -20   XYZ
    dof rx ry rz
    limits (-160.0 20.0)
           (-70.0 70.0)
           (-70.0 60.0)
  end
  begin
     id 8 
     name rtibia
     direction -0.34202 -0.939693 0   
     length 6.98689   
     axis 0 0 -20   XYZ
    dof rx
    limits (-10.0 170.0)
 end
 begin
     id 9 
     name rfoot
     direction -0.0900426 -0.24739 0.964723   
     length 2.03215  
     axis -90 -7.62852e-016 -20   XYZ
    dof rx rz
    limits (-45.0 90.0)
           (-20.0 70.0)
  end
  begin
     id 10 
     name rtoes
     direction -1.53466e-011 -4.22206e-011 1   
     length 1.0197   
     axis -90 -7.62852e-016 -20   XYZ
    dof rx
    limits (-90.0 20.0)
  end
  begin
     id 11 
     name lowerback
     direction 0.0184183 0.995705 -0.0907278   
     length 2.019   
     axis 0 0 0   XYZ
    dof rx ry rz
    limits (-20.0 45.0)
           (-30.0 30.0)
           (-30.0 30.0)
  end
  begin
     id 12 
     name upperback
     direction 0.00281055 0.998777 0.0493607   
     length 1.99623   
     axis 0 0 0   XYZ
    dof rx ry rz
    limits (-20.0 45.0)
           (-30.0 30.0)
           (-30.0 30.0)
  end
  begin
     id 13 
     name thorax
     direction -0.00665507 0.995706 0.092331   
     length 2.02811   
     axis 0 0 0   XYZ
    dof rx ry rz
    limits (-20.0 45.0)
           (-30.0 30.0)
           (-30.0 30.0)
  end
  begin
     id 14 
     name lowerneck
     direction -0.0960965 0.994358 0.0449225   
     length 1.71265   
     axis 0 0 0   XYZ
    dof rx ry rz
    limits (-20.0 45.0)
           (-30.0 30.0)
           (-30.0 30.0)
  end
  begin
     id 15 
     name upperneck
     direction 0.13642 0.985357 -0.102278   
     length 1.73016   
     axis 0 0 0   XYZ
    dof rx ry rz
    limits (-20.0 45.0)
           (-30.0 30.0)
           (-30.0 30.0)
  end
  begin
     id 16
     name head
     direction 0.0556079 0.997632 -0.040479  
     length 1.74275  
     axis 0 0 0   XYZ
    dof rx ry rz
    limits (-20.0 45.0)
           (-30.0 30.0)
           (-30.0 30.0)
  end
  begin
     id 17 
     name lclavicle
     direction 0.90877 0.417247 -0.00652364  
     length 3.25514  
     axis 0 0 0   XYZ
    dof ry rz
    limits (-20.0 10.0)
           (0.0 20.0)
  end
  begin
     id 18 
     name lhumerus
     direction 1 -4.48949e-011 8.31417e-028   
     length 4.84834   
     axis 180 -30 -90   XYZ
    dof rx ry rz
    limits (-60.0 90.0)
           (-90.0 90.0)
           (-90.0 90.0)
  end
  begin
     id 19
     name lradius
     direction 1 -4.48984e-011 3.45616e-027   
     length 2.99713   
     axis 180 -30 -90   XYZ
    dof rx
    limits (-10.0 170.0)
  end
  begin
     id 20
     name lwrist
     direction 1 -4.4891e-011 4.0479e-027   
     length 1.49857   
     axis -1.61768e-015 90 90   XYZ
    dof ry
    limits (-180.0 0.0)
 end
  begin
     id 21 
     name lhand
     direction 1 -4.49025e-011 8.0958e-027   
     length 0.693987   
     axis -5.16581e-015 90 90   XYZ
    dof rx rz
    limits (-90.0 90.0)
           (-45.0 45.0)
  end
  begin
     id 22 
     name lfingers
     direction 1 -4.4888e-011 1.61916e-026   
     length 0.55951   
     axis -1.03316e-014 90 90   XYZ
    dof rx
    limits (0.0 90.0)
  end
  begin
     id 23
     name lthumb
     direction 0.707107 -6.3493e-011 0.707107   
     length 0.803348   
     axis -90 45 2.85299e-015   XYZ
    dof rx rz
    limits (-45.0 45.0)
           (-45.0 45.0)
  end
  begin
     id 24 
     name rclavicle
     direction -0.906655 0.41906 0.0486307   
     length 3.3311  
     axis 0 0 0   XYZ 
    dof ry rz
    limits (-10.0 20.0)
           (-20.0 0.0)
  end
  begin
     id 25 
     name rhumerus
     direction -1 -4.48959e-011 6.37764e-018  
     length 4.93457   
     axis 180 30 90   XYZ
    dof rx ry rz
    limits (-90.0 60.0)
           (-90.0 90.0)
           (-90.0 90.0)
  end
  begin
     id 26 
     name rradius
     direction -1 -4.48957e-011 2.20847e-027   
     length 3.3443   
     axis 180 30 90   XYZ
    dof rx
    limits (-10.0 170.0)
  end
  begin
     id 27 
     name rwrist
     direction -1 -4.49008e-011 4.0479e-027   
     length 1.67215   
     axis -1.61768e-015 -90 -90   XYZ
    dof ry
    limits (-180.0 0.0)
  end
  begin
     id 28
     name rhand
     direction -1 -4.49013e-011 8.0958e-027   
     length 0.677363   
     axis -5.16581e-015 -90 -90   XYZ
    dof rx rz
    limits (-90.0 90.0)
           (-45.0 45.0)
  end
  begin
     id 29
     name rfingers
     direction -1 -4.48832e-011 1.61916e-026   
     length 0.546107   
     axis -1.03316e-014 -90 -90   XYZ
    dof rx
    limits (0.0 90.0)
  end
  begin
     id 30
     name rthumb
     direction -0.707107 -6.34895e-011 0.707107   
     length 0.784104   
     axis -90 -45 -2.85299e-015   XYZ
    dof rx rz
    limits (-45.0 45.0)
           (-45.0 45.0)
  end
:hierarchy
  begin
    root lhipjoint rhipjoint lowerback
    lhipjoint lfemur
    lfemur ltibia
    ltibia lfoot
    lfoot ltoes
    rhipjoint rfemur
    rfemur rtibia
    rtibia rfoot
    rfoot rtoes
    lowerback upperback
    upperback thorax
    thorax lowerneck lclavicle rclavicle
    lowerneck upperneck
    upperneck head
    lclavicle lhumerus
    lhumerus lradius
    lradius lwrist
    lwrist lhand lthumb
    lhand lfingers
    rclavicle rhumerus
    rhumerus rradius
    rradius rwrist
    rwrist rhand rthumb
    rhand rfingers
  end

#!OML:ASF H:\Terrain\Patient Classification 1\junglegym\FridayTest\junglegym.ASF
:FULLY-SPECIFIED
:DEGREES
396
root -11.0664 15.7901 -0.138422 109.205 -82.3994 -130.907
lowerback 4.04991 -0.332385 4.5198
upperback -4.23208 -0.0576048 2.51148
thorax -6.69928 -0.215556 0.102201
lowerneck 6.2247 0.594656 -16.1476
upperneck 36.7255 -4.95742 10.7688
head 11.6124 -4.61482 6.46002
rclavicle -1.49089e-015 -2.42517e-014
rhumerus 93.4444 -21.7696 -54.2136
rradius 36.3829
rwrist 0.160728
rhand -13.2632 29.2467
rfingers 7.12502
rthumb 12.8395 -0.33841
lclavicle -1.49089e-015 -2.42517e-014
lhumerus 97.5566 20.778 58.9756
lradius 34.5796
lwrist -30.7212
lhand -0.634438 23.6193
lfingers 7.12502
lthumb 24.9826 52.006
rfemur -18.6769 -0.92467 28.0389
rtibia 83.3429
rfoot -22.0689 -18.433
rtoes 24.2114
lfemur -12.9457 10.8856 -18.2757
ltibia 88.2711
lfoot -19.5507 9.94336
ltoes -10.4465
397
root -10.7704 15.771 -0.128368 109.243 -81.9974 -129.905
lowerback 4.07146 -0.394088 4.82346
upperback -4.34598 -0.111705 2.64263
thorax -6.83808 -0.260216 0.0782787
lowerneck 6.33622 0.612295 -15.5133
upperneck 36.5649 -4.80716 10.3181
head 11.4717 -4.48808 6.16574
rclavicle 5.66536e-015 -2.8625e-014
rhumerus 93.8045 -21.1458 -54.9237
rradius 36.1989
rwrist 0.784097
rhand -13.5676 29.6139
rfingers 7.12502
rthumb 12.546 0.0105776
lclavicle 5.66536e-015 -2.8625e-014
lhumerus 97.0435 20.9816 58.7953
lradius 35.3274
lwrist -30.6836
lhand -0.878583 23.6564
lfingers 7.12502
lthumb 24.7486 52.0754
rfemur -18.3015 -0.749138 28.3823
rtibia 83.7396
rfoot -20.5512 -19.0506
rtoes 17.4848
lfemur -12.4199 11.1996 -17.4906
ltibia 88.8579
lfoot -19.0662 8.33555
ltoes -6.25117
398
root -10.465 15.7362 -0.121455 110.482 -82.1569 -129.901
lowerback 3.8921 -0.71497 4.35378
upperback -4.72463 -0.579175 2.6477
thorax -7.14718 -0.478304 0.398231
lowerneck 7.1523 1.02711 -14.8085
upperneck 36.2965 -4.26338 9.9429
head 11.0914 -4.20539 5.9141
rclavicle -8.94531e-016 2.5842e-015
rhumerus 94.0318 -20.0591 -55.7106
rradius 36.0953
rwrist 0.935172
rhand -13.6956 30.0023
rfingers 7.12502
rthumb 12.4226 0.39149
lclavicle -8.94531e-016 2.5842e-015
lhumerus 95.951 21.5048 57.8026
lradius 35.9416
lwrist -30.6246
lhand -1.15172 23.9715
lfingers 7.12502
lthumb 24.4868 52.4261
rfemur -18.1254 -0.522563 28.1824
rtibia 84.2393
rfoot -24.5757 -16.7049
rtoes 34.7704
lfemur -12.1781 11.6049 -17.6103
ltibia 89.267
lfoot -17.7875 8.11669
ltoes -8.15873
399
root -10.1468 15.6807 -0.105494 112.789 -82.7338 -130.654
lowerback 3.42473 -0.268418 4.40368
upperback -4.73589 -0.0249528 2.23584
thorax -6.87211 -0.213761 -0.121645
lowerneck 6.26649 0.705247 -15.4041
upperneck 36.426 -4.76164 10.7732
head 11.4119 -4.38525 6.33192
rclavicle 6.36111e-015 -4.67144e-015
rhumerus 93.7709 -21.2227 -55.2928
rradius 36.4724
rwrist 0.819444
rhand -13.8433 29.9012
rfingers 7.12502
rthumb 12.2802 0.281724
lclavicle 6.36111e-015 -4.67144e-015
lhumerus 97.0606 20.4819 59.2336
lradius 36.4477
lwrist -30.9516
lhand -1.39349 24.4211
lfingers 7.12502
lthumb 24.255 52.9069
rfemur -18.3233 -0.680239 27.3935
rtibia 84.8183
rfoot -24.7773 -16.5563
rtoes 33.2545
lfemur -12.4693 11.885 -18.5336
ltibia 89.5811
lfoot -16.1282 8.59475
ltoes -11.8274
400
root -9.82904 15.6396 -0.0880458 116.436 -83.2861 -133.076
lowerback 3.39602 -0.244608 3.91281
upperback -4.94284 -0.033308 1.9919
thorax -7.07279 -0.204079 -0.0996182
lowerneck 6.09873 1.02223 -16.0774
upperneck 36.6076 -4.5458 11.6748
head 11.5019 -4.30004 6.84939
rclavicle -2.66868e-014 7.61345e-014
rhumerus 93.4238 -21.1394 -55.3652
rradius 37.0724
rwrist 0.724454
rhand -14.2102 29.8866
rfingers 7.12502
rthumb 11.9264 0.246286
lclavicle -2.66868e-014 7.61345e-014
lhumerus 96.8294 20.4142 59.3065
lradius 36.9065
lwrist -31.1105
lhand -1.65267 24.2321
lfingers 7.12502
lthumb 24.0065 52.7509
rfemur -18.1911 -1.15965 26.375
rtibia 85.2662
rfoot -23.6917 -16.7317
rtoes 28.6132
lfemur -12.1608 12.1065 -19.3633
ltibia 89.6502
lfoot -14.5179 8.83986
ltoes -15.7276
401
root -9.52217 15.6301 -0.0786347 118.585 -83.5391 -134.28
lowerback 3.61605 -0.353781 3.29096
upperback -5.1198 -0.203043 2.0723
thorax -7.38956 -0.257921 0.353352
lowerneck 4.69459 2.13881 -19.5915
upperneck 38.1415 -3.84947 15.3687
head 12.3787 -4.20947 9.26048
rclavicle 1.61016e-014 -1.5704e-014
rhumerus 93.1839 -20.6658 -55.4393
rradius 37.6632
rwrist 0.889404
rhand -14.1028 30.257
rfingers 7.12502
rthumb 12.0299 0.622726
lclavicle 1.61016e-014 -1.5704e-014
lhumerus 96.2673 20.5985 59.2945
lradius 37.2265
lwrist -31.329
lhand -2.10305 23.7553
lfingers 7.12502
lthumb 23.5746 52.3303
rfemur -17.6629 -1.43792 25.8236
rtibia 85.5322
rfoot -23.8601 -15.9731
rtoes 31.1946
lfemur -11.1738 11.4663 -19.2538
ltibia 89.6963
lfoot -15.1709 4.07793
ltoes 7.14183
402
root -9.21387 15.6256 -0.0841824 116.267 -82.6595 -130.399
lowerback 3.11841 -0.331039 3.93963
upperback -5.29294 -0.144807 2.46322
thorax -7.29021 -0.262096 0.394301
lowerneck 6.22913 1.34543 -16.2584
upperneck 36.4297 -4.16455 12.0132
head 11.3327 -4.10251 7.04061
rclavicle 1.04362e-014 -4.31363e-014
rhumerus 93.2758 -20.4689 -55.7869
rradius 38.1787
rwrist 0.990608
rhand -13.7252 30.2759
rfingers 7.12502
rthumb 12.3941 0.663307
lclavicle 1.04362e-014 -4.31363e-014
lhumerus 96.2001 20.4434 59.7029
lradius 37.5302
lwrist -31.5355
lhand -2.83747 23.6636
lfingers 7.12502
lthumb 22.8699 52.3275
rfemur -17.8255 -1.17817 26.954
rtibia 85.7088
rfoot -24.8393 -15.4772
rtoes 36.0599
lfemur -11.1037 11.8076 -17.748
ltibia 89.7096
lfoot -13.5092 2.26405
ltoes 18.5272
403
root -8.89616 15.6028 -0.0865408 116.802 -82.3277 -129.318
lowerback 2.54564 -0.221584 4.31025
upperback -5.42305 -0.0152069 2.46987
thorax -7.0962 -0.222025 0.180008
lowerneck 6.4851 1.05957 -15.5079
upperneck 35.9292 -4.42553 11.5275
head 11.1015 -4.13279 6.66413
rclavicle -5.26779e-015 5.96354e-015
rhumerus 93.1989 -20.5199 -56.1388
rradius 38.8793
rwrist 1.09832
rhand -13.8744 29.9427
rfingers 7.12502
rthumb 12.2502 0.321479
lclavicle -5.26779e-015 5.96354e-015
lhumerus 96.3729 20.1665 60.027
lradius 37.9616
lwrist -31.5947
lhand -3.43396 23.689
lfingers 7.12502
lthumb 22.2974 52.4225
rfemur -18.2605 -1.02385 27.2994
rtibia 86.0319
rfoot -20.533 -17.9246
rtoes 20.5536
lfemur -11.2729 13.0289 -17.4629
ltibia 89.4548
lfoot -10.4841 4.08871
ltoes -11.3908
404
root -8.58004 15.589 -0.065475 118.894 -82.9212 -130.329
lowerback 2.55733 -0.182569 4.09676
upperback -5.46656 0.011717 2.08022
thorax -7.14629 -0.206813 -0.111133
lowerneck 6.07839 1.24642 -16.3474
upperneck 36.1413 -4.30978 12.3521
head 11.267 -4.10788 7.17676
rclavicle -1.1281e-014 2.38542e-015
rhumerus 92.908 -20.6808 -56.399
rradius 39.4494
rwrist 1.44239
rhand -14.2901 30.1518
rfingers 7.12502
rthumb 11.8494 0.507023
lclavicle -1.1281e-014 2.38542e-015
lhumerus 96.4573 19.9709 60.085
lradius 38.6286
lwrist -31.4734
lhand -3.42073 23.8343
lfingers 7.12502
lthumb 22.3101 52.5663
rfemur -17.9473 -1.3454 26.3864
rtibia 86.2619
rfoot -19.4063 -18.6233
rtoes 14.1202
lfemur -10.7417 12.9671 -18.2781
ltibia 89.0508
lfoot -8.28779 2.81426
ltoes -13.0324
405
root -8.26404 15.5958 -0.0418866 116.953 -81.9513 -126.785
lowerback 2.15119 -0.1107 5.39472
upperback -5.68519 0.157821 2.31378
thorax -7.15005 -0.21236 -0.599675
lowerneck 6.02126 1.17628 -16.3648
upperneck 36.1529 -4.43223 12.4227
head 11.306 -4.15539 7.20285
rclavicle 6.26172e-015 2.23633e-014
rhumerus 92.6306 -20.7011 -56.4943
rradius 40.0199
rwrist 1.52296
rhand -14.6673 30.5982
rfingers 7.12502
rthumb 11.4857 0.932857
lclavicle 6.26172e-015 2.23633e-014
lhumerus 96.2117 20.003 60.1772
lradius 39.0213
lwrist -31.5681
lhand -3.59586 23.7283
lfingers 7.12502
lthumb 22.142 52.4804
rfemur -17.9732 -1.05141 27.4623
rtibia 86.1912
rfoot -20.0388 -17.8496
rtoes 18.5311
lfemur -10.6755 13.1136 -17.0598
ltibia 88.6801
lfoot -6.52556 1.22154
ltoes -9.88933
406
root -7.94848 15.6068 -0.0300839 117.614 -81.1645 -125.757
lowerback 1.66337 0.042858 6.1262
upperback -5.92183 0.366258 2.55437
thorax -7.11611 -0.156541 -0.767692
lowerneck 6.2384 1.20007 -16.4305
upperneck 35.7954 -4.39722 12.5056
head 11.1103 -4.11786 7.234
rclavicle -1.18277e-014 2.21645e-014
rhumerus 92.3735 -20.7089 -56.5406
rradius 40.5961
rwrist 1.62934
rhand -14.9597 31.0201
rfingers 7.12502
rthumb 11.2037 1.33926
lclavicle -1.18277e-014 2.21645e-014
lhumerus 96.0193 19.9604 60.3883
lradius 39.3793
lwrist -31.868
lhand -3.97912 23.6891
lfingers 7.12502
lthumb 21.774 52.4844
rfemur -18.2102 -0.542709 28.2098
rtibia 86.1839
rfoot -20.1763 -16.469
rtoes 24.3221
lfemur -10.5854 13.6592 -16.1587
ltibia 88.1103
lfoot -5.32626 0.568345
ltoes -15.7811
407
root -7.63691 15.6116 -0.028006 124.257 -82.437 -131.568
lowerback 1.95939 0.180706 4.52878
upperback -6.00691 0.476277 1.97852
thorax -7.36267 -0.0266463 -0.491868
lowerneck 6.59776 1.01169 -15.6306
upperneck 35.6405 -4.75981 12.476
head 11.0203 -4.19096 7.04299
rclavicle 4.79568e-015 -9.59136e-015
rhumerus 91.9342 -20.9288 -56.6614
rradius 40.9084
rwrist 1.98369
rhand -15.3424 31.6294
rfingers 7.12502
rthumb 10.8345 1.92892
lclavicle 4.79568e-015 -9.59136e-015
lhumerus 95.9919 19.3971 60.4707
lradius 39.8745
lwrist -32.0527
lhand -4.25888 24.0221
lfingers 7.12502
lthumb 21.5053 52.8483
rfemur -17.7305 -0.63073 26.2731
rtibia 86.4998
rfoot -19.9237 -15.4196
rtoes 26.4624
lfemur -9.42524 13.9019 -17.8727
ltibia 86.9684
lfoot -4.58162 1.24896
ltoes -26.6551
